# xmcd
#
# Track frame offsets: 
#        150
#        23050
#        44505
#        71112
#        92875
#        115445
#        138062
#        153400
#        174587
#        193725
#        212150
#
# Disc length: 3252 seconds
#
# Revision: 1
# Processed by: cddbd v1.5.2PL0 Copyright (c) Steve Scherf et al.
# Submitted via: ExactAudioCopyFreeDBPlugin 1.0
#
DISCID=9e0cb20b
DTITLE=川井郁子 - IKKO 2
DYEAR=1995
DGENRE=Jazz
TTITLE0=ピース・アンド・ハーモニー
TTITLE1=アイ・ノー・コリーダ
TTITLE2=スペイン
TTITLE3=ゲッタウェイ
TTITLE4=オータム・デイズ
TTITLE5=ナイト・イン・ジャズ……“La nuit bleue”
TTITLE6=エーゲアン・ブルー
TTITLE7=アイ・トゥ・アイ
TTITLE8=クラレット・ラヴ
TTITLE9=kc[,]rdebe
TTITLE10=リジョイス(アライヴ・イン・95リミックス)
EXTD=YEAR: 1995
EXTT0=
EXTT1=
EXTT2=
EXTT3=
EXTT4=
EXTT5=
EXTT6=
EXTT7=
EXTT8=
EXTT9=
EXTT10=
PLAYORDER=
